<svg width="128" height="128" viewBox="0 0 128 128" fill="none" xmlns="http://www.w3.org/2000/svg">
<rect width="128" height="128" fill="black"/>
<path d="M34.666 16.0566L34.3848 17.2168C34.1738 17.2285 33.8457 17.3047 33.4004 17.4453C32.9551 17.5742 32.6035 17.7207 32.3457 17.8848C31.8301 18.1543 31.4668 18.3711 31.2559 18.5352C31.0566 18.6875 30.6523 19.0859 30.043 19.7305C28.9297 20.9023 27.7461 22.2734 26.4922 23.8438C25.2383 25.4141 23.9258 27.0547 22.5547 28.7656C21.9453 29.5156 21.5176 30.125 21.2715 30.5938C21.0371 31.0508 20.8145 31.7129 20.6035 32.5801L19.4961 37.4316C19.4727 37.5254 19.4551 37.6309 19.4434 37.748C19.4316 37.8652 19.4258 37.9648 19.4258 38.0469C19.4258 38.3398 19.4785 38.5859 19.584 38.7852C19.6895 38.9844 19.8887 39.1543 20.1816 39.2949C20.4395 39.4121 20.8672 39.5293 21.4648 39.6465C22.0742 39.7637 22.5547 39.8281 22.9062 39.8398L22.6426 41H10.9707L11.2344 39.8398C11.5742 39.8164 12.0723 39.7754 12.7285 39.7168C13.3848 39.6582 13.8652 39.5703 14.1699 39.4531C14.6387 39.2773 14.9844 39.0371 15.207 38.7324C15.4414 38.416 15.6055 38.041 15.6992 37.6074L16.9648 32.1406C17 31.9648 17.0352 31.7891 17.0703 31.6133C17.1055 31.4375 17.123 31.332 17.123 31.2969C17.123 31.0156 17.0703 30.6523 16.9648 30.207C16.8594 29.75 16.7305 29.2695 16.5781 28.7656C16.1797 27.3711 15.752 25.9238 15.2949 24.4238C14.8496 22.9238 14.4043 21.5176 13.959 20.2051C13.7363 19.5605 13.5078 19.0625 13.2734 18.7109C13.0508 18.3477 12.7754 18.043 12.4473 17.7969C12.2129 17.6211 11.9082 17.4863 11.5332 17.3926C11.1699 17.2988 10.8301 17.2402 10.5137 17.2168L10.7949 16.0566H21.0254L20.7441 17.2168C20.4746 17.2285 20.1289 17.2461 19.707 17.2695C19.2852 17.293 18.9043 17.3281 18.5645 17.375C18.2363 17.4219 17.9375 17.5156 17.668 17.6562C17.4102 17.7852 17.2812 17.9551 17.2812 18.166C17.2812 18.3887 17.3574 18.7754 17.5098 19.3262C17.6621 19.8652 17.9023 20.6738 18.2305 21.752C18.5117 22.6895 18.8398 23.7441 19.2148 24.916C19.6016 26.0762 20.0293 27.4004 20.498 28.8887C22.209 26.8145 23.7324 24.9336 25.0684 23.2461C26.416 21.5469 27.3242 20.3691 27.793 19.7129C28.1562 19.209 28.373 18.8867 28.4434 18.7461C28.5137 18.5938 28.5488 18.4648 28.5488 18.3594C28.5488 17.9609 28.2617 17.6797 27.6875 17.5156C27.1133 17.3516 26.3926 17.252 25.5254 17.2168L25.8066 16.0566H34.666ZM39.834 39.084L39.5703 40.209C38.4922 40.6426 37.6309 40.9414 36.9863 41.1055C36.3418 41.2812 35.791 41.3691 35.334 41.3691C34.3965 41.3691 33.6934 41.1289 33.2246 40.6484C32.7559 40.1562 32.5215 39.5527 32.5215 38.8379C32.5215 38.5684 32.5449 38.2871 32.5918 37.9941C32.6387 37.7012 32.7148 37.332 32.8203 36.8867L34.6836 29.416C34.7773 29.0059 34.8652 28.5664 34.9473 28.0977C35.041 27.6289 35.0879 27.2305 35.0879 26.9023C35.0879 26.2461 34.9766 25.8125 34.7539 25.6016C34.543 25.3789 34.1035 25.2676 33.4355 25.2676C33.1777 25.2676 32.832 25.3086 32.3984 25.3906C31.9766 25.4727 31.6543 25.543 31.4316 25.6016L31.6953 24.4766C32.6094 24.0664 33.4297 23.7617 34.1562 23.5625C34.8828 23.3633 35.457 23.2637 35.8789 23.2637C36.8398 23.2637 37.5371 23.4922 37.9707 23.9492C38.4043 24.4062 38.6211 25.0215 38.6211 25.7949C38.6211 26.0059 38.5977 26.293 38.5508 26.6562C38.5039 27.0195 38.4336 27.3828 38.3398 27.7461L36.459 35.2168C36.3418 35.6738 36.2363 36.125 36.1426 36.5703C36.0605 37.0039 36.0195 37.3613 36.0195 37.6426C36.0195 38.3105 36.166 38.7676 36.459 39.0137C36.7637 39.2598 37.25 39.3828 37.918 39.3828C38.1406 39.3828 38.457 39.3535 38.8672 39.2949C39.2891 39.2363 39.6113 39.166 39.834 39.084ZM41.082 16.6191C41.082 17.2871 40.8652 17.873 40.4316 18.377C39.998 18.8691 39.459 19.1152 38.8145 19.1152C38.2168 19.1152 37.7012 18.8809 37.2676 18.4121C36.834 17.9316 36.6172 17.3867 36.6172 16.7773C36.6172 16.1328 36.834 15.5703 37.2676 15.0898C37.7012 14.6094 38.2168 14.3691 38.8145 14.3691C39.4824 14.3691 40.0273 14.5977 40.4492 15.0547C40.8711 15.5 41.082 16.0215 41.082 16.6191ZM60.1016 38.9609L59.8379 40.0859C58.7832 40.5078 57.9629 40.8125 57.377 41C56.791 41.1992 56.1992 41.2988 55.6016 41.2988C54.6641 41.2988 53.9609 41.0586 53.4922 40.5781C53.0234 40.0859 52.7891 39.4824 52.7891 38.7676C52.7891 38.5098 52.8125 38.2285 52.8594 37.9238C52.9062 37.6074 52.9824 37.2383 53.0879 36.8164L54.8105 30.2598C54.9395 29.7559 55.0391 29.2988 55.1094 28.8887C55.1914 28.4785 55.2324 28.1504 55.2324 27.9043C55.2324 27.1191 55.0449 26.498 54.6699 26.041C54.2949 25.584 53.7383 25.3555 53 25.3555C52.25 25.3555 51.4355 25.5957 50.5566 26.0762C49.6895 26.5566 48.8633 27.2305 48.0781 28.0977L45.1074 41H41.8379L47.0586 18.377C47.1172 18.1074 47.1641 17.8789 47.1992 17.6914C47.2461 17.5039 47.2695 17.3047 47.2695 17.0938C47.2695 16.6719 47.1992 16.3496 47.0586 16.127C46.918 15.8926 46.7188 15.7168 46.4609 15.5996C46.2383 15.4941 45.9336 15.4238 45.5469 15.3887C45.1602 15.3535 44.7734 15.3125 44.3867 15.2656L44.6328 14.1934L51.1543 13.7891L51.3301 14.0527L48.5176 26.2168H48.5879C49.7949 25.2441 50.873 24.5117 51.8223 24.0195C52.7715 23.5156 53.8496 23.2637 55.0566 23.2637C56.1816 23.2637 57.0605 23.5918 57.6934 24.248C58.3262 24.8926 58.6426 25.7422 58.6426 26.7969C58.6426 27.0078 58.6074 27.3828 58.5371 27.9219C58.4785 28.4609 58.3789 28.9941 58.2383 29.5215L56.7617 35.1641C56.668 35.5391 56.5684 35.9727 56.4629 36.4648C56.3574 36.9453 56.3047 37.3203 56.3047 37.5898C56.3047 38.2578 56.4512 38.7148 56.7441 38.9609C57.0371 39.1953 57.5176 39.3125 58.1855 39.3125C58.4082 39.3125 58.7246 39.2773 59.1348 39.207C59.5566 39.125 59.8789 39.043 60.1016 38.9609ZM77.3984 26.9199C77.3984 28.1621 77.0059 29.2285 76.2207 30.1191C75.4473 31.0098 74.3164 31.7188 72.8281 32.2461C71.7383 32.6445 70.6367 32.9668 69.5234 33.2129C68.4102 33.459 67.1797 33.6641 65.832 33.8281C65.832 35.6797 66.1719 37.0977 66.8516 38.082C67.543 39.0547 68.5508 39.541 69.875 39.541C71.0469 39.541 72.0781 39.248 72.9688 38.6621C73.8711 38.0762 74.7559 37.2031 75.623 36.043L76.625 36.7812C75.6875 38.2109 74.5156 39.3535 73.1094 40.209C71.7031 41.0645 70.2441 41.4922 68.7324 41.4922C66.6582 41.4922 65.0703 40.9121 63.9688 39.752C62.8789 38.5918 62.334 36.9453 62.334 34.8125C62.334 33.3359 62.5625 31.9297 63.0195 30.5938C63.4883 29.2461 64.168 28.0156 65.0586 26.9023C65.9258 25.8125 66.9863 24.9336 68.2402 24.2656C69.5059 23.5977 70.9004 23.2637 72.4238 23.2637C74.1113 23.2637 75.3594 23.6094 76.168 24.3008C76.9883 24.9805 77.3984 25.8535 77.3984 26.9199ZM74.1641 26.4805C74.1641 26.0234 74.0996 25.666 73.9707 25.4082C73.8418 25.1387 73.6777 24.9395 73.4785 24.8105C73.2676 24.6699 73.0449 24.582 72.8105 24.5469C72.5762 24.5117 72.3359 24.4941 72.0898 24.4941C70.6836 24.4941 69.3828 25.2676 68.1875 26.8145C67.0039 28.3613 66.2539 30.2891 65.9375 32.5977C66.7578 32.4805 67.6836 32.3164 68.7148 32.1055C69.7461 31.8828 70.6016 31.5957 71.2812 31.2441C72.2539 30.7402 72.9746 30.0957 73.4434 29.3105C73.9238 28.5137 74.1641 27.5703 74.1641 26.4805ZM94.3789 26.9199C94.3789 28.1621 93.9863 29.2285 93.2012 30.1191C92.4277 31.0098 91.2969 31.7188 89.8086 32.2461C88.7188 32.6445 87.6172 32.9668 86.5039 33.2129C85.3906 33.459 84.1602 33.6641 82.8125 33.8281C82.8125 35.6797 83.1523 37.0977 83.832 38.082C84.5234 39.0547 85.5312 39.541 86.8555 39.541C88.0273 39.541 89.0586 39.248 89.9492 38.6621C90.8516 38.0762 91.7363 37.2031 92.6035 36.043L93.6055 36.7812C92.668 38.2109 91.4961 39.3535 90.0898 40.209C88.6836 41.0645 87.2246 41.4922 85.7129 41.4922C83.6387 41.4922 82.0508 40.9121 80.9492 39.752C79.8594 38.5918 79.3145 36.9453 79.3145 34.8125C79.3145 33.3359 79.543 31.9297 80 30.5938C80.4688 29.2461 81.1484 28.0156 82.0391 26.9023C82.9062 25.8125 83.9668 24.9336 85.2207 24.2656C86.4863 23.5977 87.8809 23.2637 89.4043 23.2637C91.0918 23.2637 92.3398 23.6094 93.1484 24.3008C93.9688 24.9805 94.3789 25.8535 94.3789 26.9199ZM91.1445 26.4805C91.1445 26.0234 91.0801 25.666 90.9512 25.4082C90.8223 25.1387 90.6582 24.9395 90.459 24.8105C90.248 24.6699 90.0254 24.582 89.791 24.5469C89.5566 24.5117 89.3164 24.4941 89.0703 24.4941C87.6641 24.4941 86.3633 25.2676 85.168 26.8145C83.9844 28.3613 83.2344 30.2891 82.918 32.5977C83.7383 32.4805 84.6641 32.3164 85.6953 32.1055C86.7266 31.8828 87.582 31.5957 88.2617 31.2441C89.2344 30.7402 89.9551 30.0957 90.4238 29.3105C90.9043 28.5137 91.1445 27.5703 91.1445 26.4805ZM111.359 26.9199C111.359 28.1621 110.967 29.2285 110.182 30.1191C109.408 31.0098 108.277 31.7188 106.789 32.2461C105.699 32.6445 104.598 32.9668 103.484 33.2129C102.371 33.459 101.141 33.6641 99.793 33.8281C99.793 35.6797 100.133 37.0977 100.812 38.082C101.504 39.0547 102.512 39.541 103.836 39.541C105.008 39.541 106.039 39.248 106.93 38.6621C107.832 38.0762 108.717 37.2031 109.584 36.043L110.586 36.7812C109.648 38.2109 108.477 39.3535 107.07 40.209C105.664 41.0645 104.205 41.4922 102.693 41.4922C100.619 41.4922 99.0312 40.9121 97.9297 39.752C96.8398 38.5918 96.2949 36.9453 96.2949 34.8125C96.2949 33.3359 96.5234 31.9297 96.9805 30.5938C97.4492 29.2461 98.1289 28.0156 99.0195 26.9023C99.8867 25.8125 100.947 24.9336 102.201 24.2656C103.467 23.5977 104.861 23.2637 106.385 23.2637C108.072 23.2637 109.32 23.6094 110.129 24.3008C110.949 24.9805 111.359 25.8535 111.359 26.9199ZM108.125 26.4805C108.125 26.0234 108.061 25.666 107.932 25.4082C107.803 25.1387 107.639 24.9395 107.439 24.8105C107.229 24.6699 107.006 24.582 106.771 24.5469C106.537 24.5117 106.297 24.4941 106.051 24.4941C104.645 24.4941 103.344 25.2676 102.148 26.8145C100.965 28.3613 100.215 30.2891 99.8984 32.5977C100.719 32.4805 101.645 32.3164 102.676 32.1055C103.707 31.8828 104.562 31.5957 105.242 31.2441C106.215 30.7402 106.936 30.0957 107.404 29.3105C107.885 28.5137 108.125 27.5703 108.125 26.4805Z" fill="white"/>
<path d="M29.2871 64.582L27.0547 72H7.56055L7.82422 70.8398C8.11719 70.8164 8.5332 70.7754 9.07227 70.7168C9.61133 70.6582 10.0039 70.582 10.25 70.4883C10.6719 70.3242 10.9883 70.0898 11.1992 69.7852C11.4219 69.4688 11.5742 69.1055 11.6562 68.6953L15.8223 50.6602C15.8457 50.5547 15.8633 50.4492 15.875 50.3438C15.8984 50.2266 15.9102 50.1152 15.9102 50.0098C15.9102 49.7754 15.8574 49.5645 15.752 49.377C15.6582 49.1777 15.4824 49.0078 15.2246 48.8672C14.9902 48.7266 14.6445 48.5918 14.1875 48.4629C13.7422 48.334 13.3613 48.252 13.0449 48.2168L13.3086 47.0566H23.8379L23.5742 48.2168C23.3047 48.2285 22.9121 48.2812 22.3965 48.375C21.8926 48.457 21.4473 48.5566 21.0605 48.6738C20.6035 48.8262 20.2695 49.0723 20.0586 49.4121C19.8477 49.752 19.6953 50.1094 19.6016 50.4844L15.6992 67.4121C15.6055 67.8223 15.5293 68.1855 15.4707 68.502C15.4238 68.8066 15.4004 69.0586 15.4004 69.2578C15.4004 69.9023 15.6582 70.3066 16.1738 70.4707C16.7012 70.6348 17.6562 70.7168 19.0391 70.7168C19.8125 70.7168 20.6914 70.6523 21.6758 70.5234C22.6719 70.3828 23.3633 70.1367 23.75 69.7852C24.3477 69.2578 25.0977 68.4434 26 67.3418C26.9141 66.2285 27.5938 65.3086 28.0391 64.582H29.2871ZM41.9609 69.6797H41.8379C41.5801 69.8906 41.2695 70.1602 40.9062 70.4883C40.5547 70.8047 40.1387 71.1094 39.6582 71.4023C39.2012 71.6953 38.7031 71.9473 38.1641 72.1582C37.625 72.3809 37.0391 72.4922 36.4062 72.4922C34.707 72.4922 33.3711 71.8828 32.3984 70.6641C31.4375 69.4453 30.957 67.7812 30.957 65.6719C30.957 64.2188 31.2266 62.8066 31.7656 61.4355C32.3047 60.0645 33.0488 58.834 33.998 57.7441C34.9004 56.7012 35.9727 55.8633 37.2148 55.2305C38.457 54.5859 39.7344 54.2637 41.0469 54.2637C41.8789 54.2637 42.6699 54.375 43.4199 54.5977C44.1816 54.8203 44.7793 55.0723 45.2129 55.3535L48.4297 54.5273L48.6406 54.791L45.9688 66.1289C45.875 66.4922 45.7754 66.9375 45.6699 67.4648C45.5762 67.9805 45.5293 68.3613 45.5293 68.6074C45.5293 69.2754 45.6699 69.7266 45.9512 69.9609C46.2324 70.1953 46.707 70.3125 47.375 70.3125C47.5977 70.3125 47.9141 70.2773 48.3242 70.207C48.7344 70.1367 49.0508 70.0605 49.2734 69.9785L49.0098 71.1035C47.9551 71.5254 47.1699 71.8301 46.6543 72.0176C46.1387 72.2051 45.5117 72.2988 44.7734 72.2988C43.9297 72.2988 43.2617 72.0527 42.7695 71.5605C42.2773 71.0684 42.0078 70.4414 41.9609 69.6797ZM44.4746 58.5703C44.4746 58.1836 44.4336 57.8145 44.3516 57.4629C44.2695 57.1113 44.0996 56.7832 43.8418 56.4785C43.6074 56.1855 43.2852 55.9512 42.875 55.7754C42.4648 55.5996 41.9492 55.5117 41.3281 55.5117C40.4727 55.5117 39.6406 55.793 38.832 56.3555C38.0234 56.918 37.2969 57.6738 36.6523 58.623C36.043 59.5137 35.5449 60.5918 35.1582 61.8574C34.7715 63.123 34.5781 64.4062 34.5781 65.707C34.5781 66.4219 34.6191 67.0547 34.7012 67.6055C34.7832 68.1562 34.9414 68.6602 35.1758 69.1172C35.3984 69.5625 35.7207 69.9082 36.1426 70.1543C36.5645 70.4004 37.0977 70.5234 37.7422 70.5234C38.3984 70.5234 39.084 70.3418 39.7988 69.9785C40.5254 69.6035 41.3398 68.9531 42.2422 68.0273L44.4746 58.5703ZM69.0664 60.9785C69.0664 62.5371 68.7852 64.0312 68.2227 65.4609C67.6602 66.8789 66.916 68.1035 65.9902 69.1348C65.041 70.1895 63.9688 71.0215 62.7734 71.6309C61.5781 72.2285 60.3125 72.5273 58.9766 72.5273C57.9688 72.5273 57.0781 72.4395 56.3047 72.2637C55.543 72.0996 54.8926 71.8711 54.3535 71.5781C53.8027 71.2734 53.3457 70.9336 52.9824 70.5586C52.6191 70.1719 52.291 69.7441 51.998 69.2754L56.5332 49.377C56.5918 49.1074 56.6387 48.8789 56.6738 48.6914C56.7207 48.4922 56.7441 48.293 56.7441 48.0938C56.7441 47.6719 56.6738 47.3496 56.5332 47.127C56.3926 46.8926 56.1934 46.7168 55.9355 46.5996C55.6895 46.4941 55.3789 46.4238 55.0039 46.3887C54.6289 46.3535 54.248 46.3125 53.8613 46.2656L54.1074 45.1934L60.6289 44.7891L60.8047 45.0527L58.1328 56.7422H58.2031C59.2578 55.8047 60.1836 55.1602 60.9805 54.8086C61.7891 54.4453 62.5742 54.2637 63.3359 54.2637C65.1172 54.2637 66.5176 54.873 67.5371 56.0918C68.5566 57.2988 69.0664 58.9277 69.0664 60.9785ZM65.4453 61.0664C65.4453 60.4453 65.3867 59.8242 65.2695 59.2031C65.1641 58.5703 64.9824 58.043 64.7246 57.6211C64.4551 57.1758 64.0859 56.8242 63.6172 56.5664C63.1484 56.3086 62.5684 56.1797 61.877 56.1797C61.4668 56.1797 61.0801 56.25 60.7168 56.3906C60.3535 56.5312 59.9785 56.7188 59.5918 56.9531C59.252 57.1641 58.918 57.4219 58.5898 57.7266C58.2734 58.0195 57.9805 58.2832 57.7109 58.5176L55.373 68.9414C55.4082 69.1758 55.5137 69.4336 55.6895 69.7148C55.8652 69.9961 56.0879 70.2422 56.3574 70.4531C56.6855 70.7227 57.0547 70.9277 57.4648 71.0684C57.875 71.209 58.3262 71.2793 58.8184 71.2793C59.7441 71.2793 60.6113 71.0098 61.4199 70.4707C62.2402 69.9199 62.9434 69.1816 63.5293 68.2559C64.1738 67.248 64.6543 66.123 64.9707 64.8809C65.2871 63.6387 65.4453 62.3672 65.4453 61.0664Z" fill="white"/>
<path d="M58.1333 115.035C58.1333 115.024 58.1333 115.013 58.2134 114.565C58.2935 114.117 58.4536 113.232 60.2239 107.297C61.9941 101.362 65.3695 90.4037 67.512 83.9511C69.6546 77.4984 70.4619 75.8836 71.2117 74.6057C71.9615 73.3279 72.6293 72.4359 73.2403 71.7093C74.3365 70.4057 75.7356 69.4631 77.0067 68.8201C77.555 68.5428 78.6136 70.1397 80.0218 72.4051C80.5241 73.2132 80.6307 73.3055 80.8695 73.2054C81.1082 73.1054 81.4848 72.8044 82.2015 72.1438C82.9183 71.4833 83.9637 70.4721 84.9184 69.6235C85.8732 68.7748 86.7056 68.1193 87.4635 67.5765C88.2215 67.0338 88.8796 66.6237 89.7193 66.2729C90.559 65.9222 91.5602 65.6431 93.1873 65.4996C94.8143 65.356 97.0369 65.3564 98.9983 65.5753C100.96 65.7941 102.593 66.2314 103.654 66.5821C105.189 67.0897 106.12 67.8799 107.231 69.1156C107.898 69.8576 108.499 71.0603 110.297 79.2177C112.096 87.3752 115.003 102.509 116.509 110.375C118.015 118.241 118.031 118.38 117.981 118.39" stroke="white" stroke-width="2.13333" stroke-linecap="round"/>
<path d="M73.8627 76.5501C73.9324 76.566 74.0021 76.5819 75.0576 77.029C76.1131 77.4762 78.1524 78.354 80.2534 79.2914" stroke="white" stroke-width="2.13333" stroke-linecap="round"/>
<path d="M74.1803 80.1607C74.5438 80.3412 75.97 80.9612 78.5312 81.5682C79.6546 81.9251 80.5602 82.4082 81.1378 82.7386C81.2362 82.7904 81.334 82.8447 81.4348 82.9007" stroke="white" stroke-width="2.13333" stroke-linecap="round"/>
<path d="M88.5276 77.5719C88.6235 77.5399 89.2339 77.3338 90.2927 76.9437C90.7905 76.7431 91.2079 76.5374 92.1656 75.9291C93.1232 75.3209 94.6084 74.3163 96.1715 73.2479" stroke="white" stroke-width="2.13333" stroke-linecap="round"/>
<path d="M90.6987 80.6456C91.0742 80.4371 92.046 79.83 93.3296 79.0206C93.8349 78.711 94.0436 78.6066 94.7096 78.2267C95.3756 77.8467 96.4927 77.1944 97.6765 76.4889" stroke="white" stroke-width="2.13333" stroke-linecap="round"/>
<path d="M77.3267 86.9937C77.3484 86.9937 77.3702 86.9937 77.4158 87.0825C77.4614 87.1713 77.5303 87.3489 77.5984 87.3964C77.6665 87.4439 77.7317 87.3559 77.5987 87.0989" stroke="white" stroke-width="2.13333" stroke-linecap="round"/>
<path d="M96.5466 84.9358C96.5356 84.9358 96.5246 84.9358 96.5679 84.9137C96.6111 84.8915 96.709 84.8472 96.8098 84.7348" stroke="white" stroke-width="2.13333" stroke-linecap="round"/>
<path d="M74.8874 95.3143C75.403 96.0426 76.6796 97.9733 77.4991 98.8002C78.7561 100.069 80.7704 100.356 82.5065 100.52C83.7671 100.639 85.8163 100.571 87.6622 100.401C89.5081 100.231 91.0931 99.8946 92.7558 99.4267C94.4184 98.9587 96.1107 98.3691 97.745 97.6436C99.3792 96.9181 100.904 96.0745 102.328 95.0838C103.752 94.093 105.029 92.9807 105.852 92.1706C106.675 91.3605 107.005 90.8863 107.199 90.5906C107.393 90.2949 107.442 90.192 107.525 90.0193" stroke="white" stroke-width="2.13333" stroke-linecap="round"/>
</svg>
